# xmcd
#
# Track frame offsets:
#	150
#	1058
#	30855
#	38082
#	63274
#	84952
#	111599
#	130696
#	149104
#	164735
#	182114
#	199812
#	213100
#	232819
#	254698
#	266652
#	287973
#	309216
#
# Disc length: 4388 seconds
# Revision: 0
# Processed by: cddbd v1.5.2PL0 Copyright (c) Steve Scherf et al.
# Submitted via: dBpowerAMP V12.0
#
DISCID=fc112212
DTITLE=Christina Meldrum - Madapple 01
DYEAR=2008
DGENRE=AudioBook
TTITLE0=001
TTITLE1=002
TTITLE2=003
TTITLE3=004
TTITLE4=005
TTITLE5=006
TTITLE6=007
TTITLE7=008
TTITLE8=009
TTITLE9=010
TTITLE10=011
TTITLE11=012
TTITLE12=013
TTITLE13=014
TTITLE14=015
TTITLE15=016
TTITLE16=017
TTITLE17=018
EXTD=
EXTT0=
EXTT1=
EXTT2=
EXTT3=
EXTT4=
EXTT5=
EXTT6=
EXTT7=
EXTT8=
EXTT9=
EXTT10=
EXTT11=
EXTT12=
EXTT13=
EXTT14=
EXTT15=
EXTT16=
EXTT17=
PLAYORDER=
